<?xml version="1.0" encoding="UTF-8"?>
<svg width="720px" height="163px" viewBox="0 0 720 163" version="1.1" xmlns="http://www.w3.org/2000/svg" xmlns:xlink="http://www.w3.org/1999/xlink">
    <!-- Generator: Sketch 51.2 (57519) - http://www.bohemiancoding.com/sketch -->
    <title>epicure</title>
    <desc>Created with Sketch.</desc>
    <defs></defs>
    <g id="Page-1" stroke="none" stroke-width="1" fill="none" fill-rule="evenodd">
        <g id="epicure" fill="#F6F6F6">
            <path d="M558.471876,47.8993747 L549.660197,47.8993747 L549.660197,15.9742384 C549.660197,8.71808537 553.212285,8.43723327 558.914384,8.43723327 C572.704278,8.43723327 580.933963,13.1318214 580.933963,27.0582118 C580.933963,41.0184982 572.360372,47.8993747 558.471876,47.8993747 Z M525,2.22943337 L525,4.44477538 L532.046458,4.44477538 L531.60395,94.0099632 L525,94.0099632 L525,97.5569316 L549.222499,97.5569316 L549.660197,54.9908902 C553.981864,57.9035202 581.174457,98 584.014684,98 L610,98 L610,94.4530316 C601.356666,94.4530316 601.813603,95.3052725 599.670807,92.436223 C592.530557,82.8678825 574.897578,62.0315619 569.924174,54.5478218 C576.30687,54.5478218 586.862127,51.0492763 590.296373,48.0131682 C592.973065,45.6501367 594.60361,43.6817509 596.210106,40.2171012 C597.876726,36.6071833 598.550108,32.1304976 598.550108,27.5012802 C598.550108,12.0834683 587.061736,3.6409573 573.476262,1.75246903 C566.848263,0.830015141 545.321695,1.34087543 536.012194,1.34087543 C533.955976,1.34087543 531.882922,1.36992909 529.831513,1.35540226 C527.301522,1.33845429 525,0.144832859 525,2.22943337 Z" id="Shape"></path>
            <path d="M0.446916763,4.55956615 L7.15555254,4.55956615 L7.15555254,94.4404338 L0,94.4404338 L0,97.5553579 C3.123533,97.5553579 4.3641544,98 7.6024693,98 L71.5579676,98 L71.5579676,76.6426031 C66.6492097,76.6426031 68.0900889,76.2708532 64.5171969,79.8717249 C63.0128214,81.3878814 61.9162879,82.0074646 60.4827352,83.4191423 C51.1707483,92.584114 58.0991792,90.4386554 31.3085951,90.4386554 C26.4804287,90.4386554 25.0468761,88.5458895 25.0468761,83.7641651 L25.0468761,51.2809979 L43.8295909,51.2809979 C45.8517061,51.2809979 56.6412048,63.2960523 58.5876128,63.2960523 L62.6123058,63.2960523 L62.6123058,33.0360954 C56.8316939,33.0360954 58.2261719,32.4723962 51.5712638,38.0680828 C50.4063496,39.0472672 45.1972051,43.7147938 44.2765077,43.7147938 L25.0444339,43.7147938 L25.0444339,17.0168328 C25.0444339,8.02437253 28.6393053,8.11670257 38.9086222,8.11670257 C41.1212265,8.11670257 46.9482396,8.28921397 48.3988875,8.90879715 L57.3054745,16.0619458 C65.9898243,23.0571615 63.1617936,22.7996092 70.6592497,22.7996092 C71.6898447,22.7996092 72,22.4910325 72,21.4656831 L72,1 L0.446916763,1 L0.446916763,4.55956615 Z" id="Shape"></path>
            <path d="M648.449313,6.55938784 L655.154824,6.55938784 L655.154824,65.7375513 C655.154824,76.4837441 654.710395,85.7114267 654.710395,96.4406122 L648,96.4406122 L648,100 L719.550687,100 L719.550687,79.0882928 C711.924572,79.0882928 715.707105,79.8244665 706.269086,87.672127 C698.494014,94.1373359 707.414346,92.8812243 682.43595,92.8812243 C676.892793,92.8812243 673.044328,92.769462 673.044328,87.0987376 L673.044328,53.2784791 L690.928947,53.2784791 C692.911786,53.2784791 697.190029,57.5546037 699.09961,59.3865344 C700.586739,60.8102896 701.101984,61.4832933 702.81377,62.8098637 C706.291063,65.499449 704.169035,65.7375513 710.159064,65.7375513 C710.159064,60.6839495 709.953943,50.7711151 710.483839,46.9274622 C710.779312,44.8039776 710.598609,42.5371456 710.608377,40.3747871 C710.642564,34.7672327 711.428862,35.0369201 706.584094,35.0369201 C704.801492,35.0369201 693.344005,46.1597034 691.827573,46.1597034 L673.04677,46.1597034 L673.04677,18.1292205 C673.04677,8.45448853 680.392064,10.5633955 694.513685,10.5633955 C697.981211,10.5633955 711.00641,24.8009468 713.738918,24.8009468 L720,24.8009468 L720,3.44461978 L648.449313,3 L648.449313,6.55938784 Z" id="Shape"></path>
            <path d="M401,3.207083 C401,5.16839912 403.078086,4.52988712 407.663454,4.52988712 L407.217284,64.9813123 C407.217284,76.1588866 409.5912,83.9318667 417.091224,90.9121281 C428.107262,101.164462 460.966239,101.928267 474.089462,91.7193037 C481.819845,85.7076529 483.012865,76.2793606 484.300454,67.4462096 C484.797545,64.0151111 484.518689,32.2919072 484.479892,25.2658656 C484.460493,21.793806 484.952735,20.2541488 484.935761,16.8905157 L484.964859,4.05040075 C484.979408,2.40472641 485.311611,1 483.597251,1 L466.722804,1 L466.722804,4.52988712 L472.940088,4.52988712 L472.940088,56.598734 C472.940088,65.5957295 472.433297,75.0457072 469.909041,81.3874566 C467.319314,87.8906412 461.053533,91.3627008 452.527804,91.916881 C442.923021,92.5409361 436.453554,91.5675065 431.300773,86.0618464 C427.105804,81.5826244 425.422967,72.6362279 425.422967,64.0994429 L425.422967,1.00240948 L401,1.00240948 L401,3.207083 Z" id="Shape"></path>
            <path d="M143.557855,47.9365862 L135.646918,47.9365862 C135.646918,42.8228441 134.967672,14.3128161 136.71259,11.0248874 C139.554383,5.67193437 156.590739,8.54246458 161.595078,12.1599185 C165.944173,15.3038325 167.729894,23.5688115 167.245061,28.1870455 C165.74736,42.5323737 158.602075,47.9365862 143.557855,47.9365862 Z M111.472478,4.57595813 L118.065726,4.57595813 L118.065726,94.4240419 C110.104386,94.4240419 111.033249,93.6307406 111.033249,98 L135.646918,98 L135.646918,55.0885025 C148.019757,55.0885025 162.473538,55.9428269 173.454283,50.1773573 C191.11228,40.9115982 191.431502,1 153.66734,1 L111.472478,1 L111.472478,4.57595813 Z" id="Shape"></path>
            <path d="M283,45.5518261 L283,55.4744206 C283,74.8245881 291.778234,91.9065229 308.440463,98.4575533 C321.807486,103.710692 341.973168,102.469444 355.866934,98.9550375 C358.532499,98.2826949 360.558622,97.506915 362.864042,96.9675633 L362.864042,87.0449688 C353.005372,92.2882559 347.206299,95.1647985 334.147972,95.1647985 C309.4327,95.1647985 301.394356,73.1252607 301.394356,51.4157371 C301.394356,39.1879681 301.13466,28.2753307 307.526625,17.8921938 C314.803029,6.06832286 330.916465,4.83200059 338.891109,10.1146924 C341.301877,11.7105825 344.631383,15.0993861 344.913129,18.4906526 L338.183069,18.4906526 L338.183069,22.0986449 L366,22.0986449 C364.620668,5.36888954 345.584421,0 331.457908,0 C309.109304,0 294.039554,5.0142473 286.143308,26.6104823 C284.391582,31.3932271 283,39.010647 283,45.5518261 Z" id="Shape"></path>
            <path d="M220,2.33628895 L220,4.56181745 L227.085576,4.56181745 L226.64303,98 L251,98 L251,94.4406122 L244.799516,94.4406122 L244.799516,1.44461978 L221.327639,1 C220.309541,1 220,1.31099088 220,2.33628895 Z" id="Shape"></path>
            <path d="M150.759162,127.890622 L150.759162,155 L158.209873,155 L158.209873,153.66528 L156.455497,153.66528 L156.455497,139.446871 C158.104562,140.66996 160.699028,146.926157 162.592221,148.33368 C164.53089,147.807072 166.97457,143.652453 168.231114,142.053215 C170.021391,139.776911 171.711144,137.58797 173.549289,135.445138 L173.549289,155 L181,155 C180.53089,153.82302 181.899925,154.170047 179.245625,154.111804 L179.245625,127.002427 L171.794914,127.002427 L171.794914,128.33472 L173.546896,128.33472 C173.546896,131.666667 173.441586,131.059976 171.739865,133.168833 C170.871055,134.248743 170.217651,134.959785 169.348841,136.078523 L164.34181,142.111458 C163.446672,141.446525 155.31623,129.213209 155.136724,127 L149,127 C149.442782,128.099324 148.121616,127.890622 150.759162,127.890622 Z" id="Shape"></path>
            <polygon id="Shape" points="534 129.311604 535.784321 129.311604 535.784321 156 542.931357 156 542.931357 154.688396 541.142161 154.688396 541.142161 142.437201 553.644598 142.876792 553.644598 156 559 156 559 128.437201 553.644598 128.437201 553.644598 140.251195 541.142161 140.251195 541.142161 128 534 128"></polygon>
            <path d="M355.60636,147.191804 C355.60636,144.574862 358.44599,141.685569 360.701511,141.121921 C363.758601,146.533424 363.311037,145.460597 366.722133,150.230298 C363.546198,151.802832 364.110078,152.399636 360.238775,152.399636 C357.442131,152.397268 355.60636,149.72112 355.60636,147.191804 Z M363.477925,137.650032 C362.903931,135.331493 362.089718,134.843629 362.089718,132.011174 C362.089718,124.26929 376.045121,131.421475 363.477925,137.650032 Z M359.77351,139.385976 C345.223883,146.597368 352.05619,155 356.994567,155 C363.895146,155 362.944388,154.476612 367.645076,151.53048 C372.548053,154.604498 370.790668,155 376.444642,155 C379.564948,155 381.388076,151.814673 382,149.361142 C379.461275,149.619284 381.648523,149.031952 379.782408,150.753687 C376.088108,154.161631 372.828728,149.714015 370.886755,148.494354 L374.965405,142.774975 C376.431999,140.484855 377.064152,138.362883 380.609264,138.085795 L371.344434,137.219007 C372.252205,139.570702 373.195377,137.309001 373.195377,141.121921 C373.195377,143.594397 370.919627,145.001152 370.418962,146.760778 C368.251943,146.218444 365.376912,140.681422 364.39834,138.954951 C368.358144,136.989284 371.341905,135.916457 371.341905,131.580149 C371.349491,124.02299 352.549269,125.282911 359.77351,139.385976 Z" id="Shape"></path>
            <path d="M205,128.311604 L206.740266,128.311604 L206.740266,153.688396 C204.107312,153.745734 205.465337,153.404096 205,154.562799 L225,155 L225,148.43959 C223.22887,148.587713 223.148148,149.122867 222.060779,150.293515 C219.489554,153.062457 220.401235,152.374403 213.259734,152.374403 C210.990028,152.374403 211.956315,147.73959 211.956315,141.437201 C217.649573,141.437201 217.001425,140.87099 219.230769,143.303072 C220.3585,144.531058 220.261159,144.88942 222.390788,144.937201 L222.390788,136.188396 C220.173314,136.238567 220.679012,136.415358 219.437322,137.590785 C217.065527,139.841297 216.407882,139.251195 211.956315,139.251195 C211.956315,135.287713 211.623932,132.939249 212.390788,129.625597 C216.887464,129.250512 216.944444,128.012969 220.952042,131.51058 C222.452517,132.822184 222.352802,133.503072 225,133.562799 L225,127 L205,127 L205,128.311604 Z" id="Shape"></path>
            <path d="M415,128.899195 L417.174223,128.899195 L417.174223,163 C417.912414,162.79664 422.389034,160.39062 422.389034,158.962198 L422.389034,142.80854 C428.365773,142.80854 427.029433,142.269513 429.778068,144.60203 C431.002848,145.640882 431.057441,146.246062 432.823404,146.39552 L432.823404,136.972349 C429.759079,137.234512 429.495609,139.520476 427.724899,140.19181 C426.727985,140.571579 425.600522,140.113406 422.389034,140.113406 C422.389034,136.051103 422.059103,133.642632 422.825777,130.241862 C429.630904,130.241862 427.985996,129.680784 431.935675,132.951698 C432.899359,133.750438 433.177071,134.238012 435,134.279664 L435,128 L415,128.899195 Z" id="Shape"></path>
            <path d="M261.135069,132.764666 L265.903431,144.293998 L256.369073,144.293998 C256.477928,142.938176 259.802767,133.762164 261.135069,132.764666 Z M259.400473,127.886127 C259.258487,129.624485 255.145627,139.028081 254.258214,141.24824 L249,154.932361 L254.20142,154.932361 L254.20142,153.603171 L252.466824,153.603171 C253.008738,151.215955 254.875853,148.424414 255.067534,146.066251 L266.767179,146.066251 C267.40375,148.855372 268.731319,150.814051 269.367889,153.603171 C266.629926,153.835598 267.09848,154.7992 269.720488,154.963836 C271.275234,155.06068 273.376627,154.932361 275,154.932361 C274.027396,152.85989 273.182579,150.283827 272.276236,147.966824 C271.298899,145.473079 270.536907,143.516821 269.552471,140.998866 C268.577501,138.500279 267.713753,136.294646 266.831073,134.030907 C266.040684,132.006858 264.613725,128.956258 264.168836,127 L257.668244,127 C258.098935,128.096763 256.79503,127.886127 259.400473,127.886127 Z" id="Shape"></path>
            <path d="M504.796148,150.470506 C504.796148,154.748351 497.443961,153.544608 492.216423,153.544608 L492.216423,155.74108 L498.777492,155.997654 C499.781786,156.019235 499.578085,155.887351 500.909248,155.789037 C504.161359,155.544452 510,155.060077 510,149.151664 C510,146.432451 508.038785,144.449392 506.359435,143.178508 C505.345667,142.415977 504.438487,141.883644 503.49104,141.248202 C501.176901,139.696764 495.932783,136.394863 495.49222,134.418997 C494.322123,129.170005 503.379715,130.268241 507.830347,130.268241 L507.830347,128.074167 C502.252253,128.074167 495.122716,127.294851 491.86113,130.788584 C483.746248,139.483351 504.796148,145.550026 504.796148,150.470506 Z" id="Shape"></path>
            <path d="M294,133.222762 C298.728455,133.118402 296.422558,129.223108 303.546267,129.223108 L303.546267,155 L311.273133,155 C310.786636,153.216174 311.149027,153.713704 308.999504,153.667591 L308.999504,129.223108 C316.637014,129.223108 313.482228,133.10384 319,133.222762 L319,127 L294,127 L294,133.222762 Z" id="Shape"></path>
            <path d="M458,128.499238 C459.016641,129.787806 457.934997,129.337292 460.381695,129.385734 L460.381695,156 L468,156 C467.49298,154.825271 468.980239,155.171635 466.096724,155.113504 L466.096724,128.05599 C464.536661,128.05599 458.644826,127.767757 458,128.499238 Z" id="Shape"></path>
        </g>
    </g>
</svg>